<mxfile host="drawio-plugin" modified="2021-12-16T20:01:27.214Z" agent="5.0 (Macintosh; Intel Mac OS X 12_1_0) AppleWebKit/537.36 (KHTML, like Gecko) Chrome/89.0.4389.114 Safari/537.36" etag="5QwusTYyeUZ4gnaaJwpu" version="14.7.4" type="embed"><diagram id="HbdgqcXgwcT-n3ahWMv5" name="Page-1"><mxGraphModel dx="1253" dy="1075" grid="1" gridSize="10" guides="1" tooltips="1" connect="1" arrows="1" fold="1" page="1" pageScale="1" pageWidth="850" pageHeight="1100" math="0" shadow="0"><root><mxCell id="0"/><mxCell id="1" parent="0"/><mxCell id="9" style="edgeStyle=orthogonalEdgeStyle;rounded=0;orthogonalLoop=1;jettySize=auto;html=1;exitX=0.25;exitY=1;exitDx=0;exitDy=0;entryX=0.25;entryY=0;entryDx=0;entryDy=0;" parent="1" source="2" target="4" edge="1"><mxGeometry relative="1" as="geometry"/></mxCell><mxCell id="14" value="&lt;span style=&quot;font-size: 12px&quot;&gt;Press the&lt;/span&gt;&lt;br style=&quot;font-size: 12px&quot;&gt;&lt;span style=&quot;font-size: 12px&quot;&gt;keyboard keys&lt;/span&gt;" style="edgeLabel;html=1;align=center;verticalAlign=middle;resizable=0;points=[];" parent="9" vertex="1" connectable="0"><mxGeometry x="0.0545" y="3" relative="1" as="geometry"><mxPoint as="offset"/></mxGeometry></mxCell><mxCell id="2" value="&lt;br&gt;&lt;br&gt;&lt;br&gt;&lt;br&gt;&lt;br&gt;&lt;br&gt;User&lt;br&gt;" style="shape=actor;whiteSpace=wrap;html=1;" parent="1" vertex="1"><mxGeometry x="315" width="180" height="170" as="geometry"/></mxCell><mxCell id="15" style="edgeStyle=orthogonalEdgeStyle;rounded=0;orthogonalLoop=1;jettySize=auto;html=1;exitX=0.75;exitY=0;exitDx=0;exitDy=0;entryX=0.806;entryY=1;entryDx=0;entryDy=0;entryPerimeter=0;" parent="1" source="4" target="2" edge="1"><mxGeometry relative="1" as="geometry"/></mxCell><mxCell id="16" value="Response" style="edgeLabel;html=1;align=center;verticalAlign=middle;resizable=0;points=[];" parent="15" vertex="1" connectable="0"><mxGeometry x="-0.0736" y="-2" relative="1" as="geometry"><mxPoint as="offset"/></mxGeometry></mxCell><mxCell id="4" value="Application" style="swimlane;" parent="1" vertex="1"><mxGeometry x="310" y="280" width="200" height="140" as="geometry"/></mxCell><mxCell id="11" value="The program we wrote&amp;nbsp;" style="text;html=1;align=center;verticalAlign=middle;resizable=0;points=[];autosize=1;strokeColor=none;" parent="4" vertex="1"><mxGeometry x="30" y="70" width="140" height="20" as="geometry"/></mxCell><mxCell id="21" value="PlaneGame(object)" style="swimlane;fontStyle=0;childLayout=stackLayout;horizontal=1;startSize=26;fillColor=none;horizontalStack=0;resizeParent=1;resizeParentMax=0;resizeLast=0;collapsible=1;marginBottom=0;" parent="1" vertex="1"><mxGeometry x="60" y="470" width="170" height="200" as="geometry"><mxRectangle x="110" y="520" width="140" height="26" as="alternateBounds"/></mxGeometry></mxCell><mxCell id="22" value="__init__(self)&#10;_create_sprite(self)" style="text;strokeColor=none;fillColor=none;align=left;verticalAlign=top;spacingLeft=4;spacingRight=4;overflow=hidden;rotatable=0;points=[[0,0.5],[1,0.5]];portConstraint=eastwest;" parent="21" vertex="1"><mxGeometry y="26" width="170" height="54" as="geometry"/></mxCell><mxCell id="23" value="start_game(self)&#10;__event_handle(self)&#10;__check_colliode(self)&#10;__update_sprite(self)" style="text;strokeColor=none;fillColor=none;align=left;verticalAlign=top;spacingLeft=4;spacingRight=4;overflow=hidden;rotatable=0;points=[[0,0.5],[1,0.5]];portConstraint=eastwest;" parent="21" vertex="1"><mxGeometry y="80" width="170" height="80" as="geometry"/></mxCell><mxCell id="24" value="game_over()" style="text;strokeColor=none;fillColor=none;align=left;verticalAlign=top;spacingLeft=4;spacingRight=4;overflow=hidden;rotatable=0;points=[[0,0.5],[1,0.5]];portConstraint=eastwest;" parent="21" vertex="1"><mxGeometry y="160" width="170" height="40" as="geometry"/></mxCell><mxCell id="25" value="plane_main" style="swimlane;fontStyle=0;childLayout=stackLayout;horizontal=1;startSize=26;fillColor=none;horizontalStack=0;resizeParent=1;resizeParentMax=0;resizeLast=0;collapsible=1;marginBottom=0;" parent="1" vertex="1"><mxGeometry x="595" y="480" width="185" height="52" as="geometry"/></mxCell><mxCell id="26" value="class PlaneGame(object)" style="text;strokeColor=none;fillColor=none;align=left;verticalAlign=top;spacingLeft=4;spacingRight=4;overflow=hidden;rotatable=0;points=[[0,0.5],[1,0.5]];portConstraint=eastwest;" parent="25" vertex="1"><mxGeometry y="26" width="185" height="26" as="geometry"/></mxCell><mxCell id="52" style="edgeStyle=orthogonalEdgeStyle;rounded=0;orthogonalLoop=1;jettySize=auto;html=1;entryX=0.5;entryY=0;entryDx=0;entryDy=0;dashed=1;" edge="1" parent="1" source="29" target="31"><mxGeometry relative="1" as="geometry"/></mxCell><mxCell id="29" value="plane_sprites()" style="swimlane;align=left;spacingTop=0;" parent="1" vertex="1"><mxGeometry x="280" y="480" width="230" height="180" as="geometry"/></mxCell><mxCell id="30" value="&lt;div&gt;class GameSprite(pygame.sprite.Sprite)&lt;/div&gt;&lt;div&gt;&lt;br&gt;&lt;/div&gt;&lt;div&gt;class BackGround(GameSprite)&lt;/div&gt;&lt;div&gt;&lt;br&gt;&lt;/div&gt;&lt;div&gt;class Enemy(GameSprite)&lt;/div&gt;&lt;div&gt;&lt;br&gt;&lt;/div&gt;&lt;div&gt;class Hero(GameSprite)&lt;/div&gt;&lt;div&gt;&lt;br&gt;&lt;/div&gt;&lt;div&gt;class Bullet(GameSprite)&lt;/div&gt;" style="text;html=1;align=left;verticalAlign=middle;resizable=0;points=[];autosize=1;strokeColor=none;spacing=4;labelBorderColor=none;labelBackgroundColor=none;spacingTop=0;" parent="29" vertex="1"><mxGeometry x="5" y="28" width="240" height="140" as="geometry"/></mxCell><mxCell id="53" style="edgeStyle=orthogonalEdgeStyle;rounded=0;orthogonalLoop=1;jettySize=auto;html=1;exitX=0;exitY=1;exitDx=0;exitDy=0;entryX=0.5;entryY=0;entryDx=0;entryDy=0;dashed=1;" edge="1" parent="1" source="31" target="33"><mxGeometry relative="1" as="geometry"><Array as="points"><mxPoint x="550" y="730"/><mxPoint x="550" y="755"/><mxPoint x="145" y="755"/></Array></mxGeometry></mxCell><mxCell id="55" style="edgeStyle=orthogonalEdgeStyle;rounded=0;orthogonalLoop=1;jettySize=auto;html=1;dashed=1;" edge="1" parent="1" source="31" target="37"><mxGeometry relative="1" as="geometry"><Array as="points"><mxPoint x="710" y="740"/><mxPoint x="710" y="740"/></Array></mxGeometry></mxCell><mxCell id="56" style="edgeStyle=orthogonalEdgeStyle;rounded=0;orthogonalLoop=1;jettySize=auto;html=1;entryX=0.5;entryY=0;entryDx=0;entryDy=0;dashed=1;" edge="1" parent="1" source="31" target="39"><mxGeometry relative="1" as="geometry"><Array as="points"><mxPoint x="595" y="800"/><mxPoint x="595" y="800"/></Array></mxGeometry></mxCell><mxCell id="57" style="edgeStyle=orthogonalEdgeStyle;rounded=0;orthogonalLoop=1;jettySize=auto;html=1;entryX=0.75;entryY=0;entryDx=0;entryDy=0;dashed=1;" edge="1" parent="1" source="31" target="35"><mxGeometry relative="1" as="geometry"><Array as="points"><mxPoint x="570" y="830"/><mxPoint x="310" y="830"/></Array></mxGeometry></mxCell><mxCell id="31" value="GameSprite(pygame.sprite.Sprite)" style="swimlane;labelBackgroundColor=none;align=left;" parent="1" vertex="1"><mxGeometry x="530" y="630" width="230" height="100" as="geometry"/></mxCell><mxCell id="32" value="_init_(self)&lt;br&gt;&lt;br&gt;update(self)" style="text;html=1;align=center;verticalAlign=middle;resizable=0;points=[];autosize=1;strokeColor=none;" parent="31" vertex="1"><mxGeometry x="10" y="30" width="80" height="50" as="geometry"/></mxCell><mxCell id="33" value="BackGround(GameSprite)" style="swimlane;labelBackgroundColor=none;align=left;" parent="1" vertex="1"><mxGeometry x="30" y="780" width="230" height="150" as="geometry"/></mxCell><mxCell id="34" value="&lt;div&gt;__init_(self.is_alt=False)&lt;/div&gt;&lt;div&gt;&lt;br&gt;&lt;/div&gt;&lt;div&gt;update(self)&lt;/div&gt;&lt;div&gt;&lt;br&gt;&lt;/div&gt;&lt;div&gt;change_background(self, background)&lt;br&gt;&lt;/div&gt;" style="text;html=1;align=left;verticalAlign=middle;resizable=0;points=[];autosize=1;strokeColor=none;" parent="33" vertex="1"><mxGeometry x="10" y="25" width="220" height="80" as="geometry"/></mxCell><mxCell id="35" value="Hero(GameSprite)" style="swimlane;labelBackgroundColor=none;align=left;" parent="1" vertex="1"><mxGeometry x="160" y="970" width="200" height="150" as="geometry"/></mxCell><mxCell id="36" value="&lt;div&gt;__init_(self.is_alt=False)&lt;/div&gt;&lt;div&gt;&lt;br&gt;&lt;/div&gt;&lt;div&gt;update(self)&lt;/div&gt;&lt;div&gt;&lt;br&gt;&lt;/div&gt;&lt;div&gt;fire(self)&lt;br&gt;&lt;/div&gt;" style="text;html=1;align=left;verticalAlign=middle;resizable=0;points=[];autosize=1;strokeColor=none;" parent="35" vertex="1"><mxGeometry x="10" y="25" width="150" height="80" as="geometry"/></mxCell><mxCell id="37" value="Bullet(GameSprite)" style="swimlane;labelBackgroundColor=none;align=left;" parent="1" vertex="1"><mxGeometry x="610" y="780" width="200" height="150" as="geometry"/></mxCell><mxCell id="38" value="&lt;div&gt;__init_(self.is_alt=False)&lt;/div&gt;&lt;div style=&quot;&quot;&gt;&lt;br&gt;&lt;/div&gt;&lt;div&gt;update(self)&lt;/div&gt;" style="text;html=1;align=left;verticalAlign=middle;resizable=0;points=[];autosize=1;strokeColor=none;" parent="37" vertex="1"><mxGeometry x="10" y="40" width="150" height="50" as="geometry"/></mxCell><mxCell id="39" value="Enemy(GameSprite)" style="swimlane;labelBackgroundColor=none;align=left;startSize=23;" parent="1" vertex="1"><mxGeometry x="495" y="970" width="200" height="150" as="geometry"/></mxCell><mxCell id="40" value="&lt;div&gt;__init_(self.is_alt=False)&lt;/div&gt;&lt;div style=&quot;&quot;&gt;&lt;br&gt;&lt;/div&gt;&lt;div&gt;update(self)&lt;/div&gt;" style="text;html=1;align=left;verticalAlign=middle;resizable=0;points=[];autosize=1;strokeColor=none;" parent="39" vertex="1"><mxGeometry x="10" y="40" width="150" height="50" as="geometry"/></mxCell><mxCell id="49" style="edgeStyle=orthogonalEdgeStyle;rounded=0;orthogonalLoop=1;jettySize=auto;html=1;entryX=0.5;entryY=0;entryDx=0;entryDy=0;dashed=1;" edge="1" parent="1" source="44" target="21"><mxGeometry relative="1" as="geometry"/></mxCell><mxCell id="50" style="edgeStyle=orthogonalEdgeStyle;rounded=0;orthogonalLoop=1;jettySize=auto;html=1;exitX=0.5;exitY=1;exitDx=0;exitDy=0;entryX=0.5;entryY=0;entryDx=0;entryDy=0;dashed=1;" edge="1" parent="1" source="44" target="29"><mxGeometry relative="1" as="geometry"/></mxCell><mxCell id="51" style="edgeStyle=orthogonalEdgeStyle;rounded=0;orthogonalLoop=1;jettySize=auto;html=1;exitX=1;exitY=0.5;exitDx=0;exitDy=0;entryX=0.5;entryY=0;entryDx=0;entryDy=0;dashed=1;" edge="1" parent="1" source="44" target="25"><mxGeometry relative="1" as="geometry"/></mxCell><mxCell id="44" value="" style="rounded=0;whiteSpace=wrap;html=1;fillColor=none;dashed=1;" vertex="1" parent="1"><mxGeometry x="240" y="260" width="330" height="190" as="geometry"/></mxCell></root></mxGraphModel></diagram></mxfile>